<mxfile host="65bd71144e">
    <diagram id="iDeeF5UcAUlQr9oWMVLV" name="Page-1">
        <mxGraphModel dx="936" dy="779" grid="1" gridSize="10" guides="1" tooltips="1" connect="1" arrows="1" fold="1" page="1" pageScale="1" pageWidth="850" pageHeight="1100" math="0" shadow="0">
            <root>
                <mxCell id="0"/>
                <mxCell id="1" parent="0"/>
                <mxCell id="3" value="" style="rounded=0;whiteSpace=wrap;html=1;" vertex="1" parent="1">
                    <mxGeometry x="170" y="160" width="360" height="800" as="geometry"/>
                </mxCell>
                <mxCell id="4" value="" style="rounded=0;whiteSpace=wrap;html=1;" vertex="1" parent="1">
                    <mxGeometry x="170" y="160" width="360" height="60" as="geometry"/>
                </mxCell>
                <mxCell id="5" value="editRecipeBtn" style="rounded=1;whiteSpace=wrap;html=1;" vertex="1" parent="1">
                    <mxGeometry x="180" y="810" width="340" height="50" as="geometry"/>
                </mxCell>
                <mxCell id="6" value="Nav" style="rounded=0;whiteSpace=wrap;html=1;" vertex="1" parent="1">
                    <mxGeometry x="180" y="170" width="40" height="40" as="geometry"/>
                </mxCell>
                <mxCell id="8" value="&lt;font style=&quot;font-size: 21px;&quot;&gt;Search Field&lt;/font&gt;" style="rounded=0;whiteSpace=wrap;html=1;" vertex="1" parent="1">
                    <mxGeometry x="240" y="170" width="190" height="40" as="geometry"/>
                </mxCell>
                <mxCell id="9" value="&lt;font style=&quot;font-size: 20px;&quot;&gt;srcBtn&lt;/font&gt;" style="rounded=1;whiteSpace=wrap;html=1;" vertex="1" parent="1">
                    <mxGeometry x="440" y="170" width="70" height="40" as="geometry"/>
                </mxCell>
                <mxCell id="12" value="cookRecipeBtn" style="rounded=1;whiteSpace=wrap;html=1;" vertex="1" parent="1">
                    <mxGeometry x="180" y="870" width="340" height="50" as="geometry"/>
                </mxCell>
                <mxCell id="17" value="{recipeName}" style="swimlane;whiteSpace=wrap;html=1;" vertex="1" parent="1">
                    <mxGeometry x="180" y="230" width="340" height="200" as="geometry"/>
                </mxCell>
                <mxCell id="19" value="Picture" style="rounded=1;whiteSpace=wrap;html=1;" vertex="1" parent="17">
                    <mxGeometry x="10" y="30" width="120" height="120" as="geometry"/>
                </mxCell>
                <mxCell id="18" value="Rating:" style="text;html=1;align=left;verticalAlign=middle;whiteSpace=wrap;rounded=0;fontSize=18;" vertex="1" parent="17">
                    <mxGeometry x="140" y="30" width="70" height="30" as="geometry"/>
                </mxCell>
                <mxCell id="21" value="&lt;font style=&quot;font-size: 15px;&quot;&gt;Difficulty: {difficulty}&lt;/font&gt;" style="text;html=1;align=left;verticalAlign=middle;whiteSpace=wrap;rounded=0;fontSize=18;" vertex="1" parent="17">
                    <mxGeometry x="140" y="75" width="140" height="30" as="geometry"/>
                </mxCell>
                <mxCell id="22" value="&lt;span style=&quot;font-size: 15px;&quot;&gt;Tags: {tags}&lt;/span&gt;" style="text;html=1;align=left;verticalAlign=middle;whiteSpace=wrap;rounded=0;fontSize=18;" vertex="1" parent="17">
                    <mxGeometry x="10" y="160" width="90" height="30" as="geometry"/>
                </mxCell>
                <mxCell id="20" value="&lt;font style=&quot;font-size: 15px;&quot;&gt;Cooktime: {time}&lt;/font&gt;" style="text;html=1;align=left;verticalAlign=middle;whiteSpace=wrap;rounded=0;fontSize=18;" vertex="1" parent="17">
                    <mxGeometry x="140" y="50" width="130" height="30" as="geometry"/>
                </mxCell>
                <mxCell id="30" value="Ingredients" style="swimlane;whiteSpace=wrap;html=1;" vertex="1" parent="1">
                    <mxGeometry x="180" y="440" width="340" height="140" as="geometry"/>
                </mxCell>
                <mxCell id="31" value="Steps" style="swimlane;whiteSpace=wrap;html=1;" vertex="1" parent="1">
                    <mxGeometry x="180" y="590" width="340" height="200" as="geometry"/>
                </mxCell>
            </root>
        </mxGraphModel>
    </diagram>
</mxfile>